<?xml version="1.0" encoding="utf-8"?>
<!-- Generator: Adobe Illustrator 19.0.0, SVG Export Plug-In . SVG Version: 6.00 Build 0)  -->
<svg version="1.1" id="Layer_2" xmlns="http://www.w3.org/2000/svg" xmlns:xlink="http://www.w3.org/1999/xlink" x="0px" y="0px"
	 viewBox="221 109 1054 576" style="enable-background:new 221 109 1054 576;" xml:space="preserve">
<style type="text/css">
	.st0{fill:#414042;}
	.st1{fill:#FFFFFF;}
	.st2{font-family:'Calibri';}
	.st3{font-size:36px;}
	.st4{font-size:30px;}
	.st5{font-size:24px;}
</style>
<title>maptext</title>
<g id="scents">
	<path class="st0" d="M1077.3,585h195c1.4,0,2.5,1.1,2.5,2.5v95c0,1.4-1.1,2.5-2.5,2.5h-195c-1.4,0-2.5-1.1-2.5-2.5v-95
		C1074.8,586.1,1075.9,585,1077.3,585z"/>
</g>
<g id="radio">
	<path class="st0" d="M1127.3,435h120c1.4,0,2.5,1.1,2.5,2.5v120c0,1.4-1.1,2.5-2.5,2.5h-120c-1.4,0-2.5-1.1-2.5-2.5v-120
		C1124.8,436.1,1125.9,435,1127.3,435z"/>
</g>
<g id="life">
	<path class="st0" d="M827.3,560h220c1.4,0,2.5,1.1,2.5,2.5v120c0,1.4-1.1,2.5-2.5,2.5h-220c-1.4,0-2.5-1.1-2.5-2.5v-120
		C824.8,561.1,825.9,560,827.3,560z"/>
</g>
<g id="dna">
	<path class="st0" d="M223.7,364.2h315.6c1.4,0,2.5,1.1,2.5,2.5v315.6c0,1.4-1.1,2.5-2.5,2.5H223.7c-1.4,0-2.5-1.1-2.5-2.5V366.7
		C221.2,365.3,222.3,364.2,223.7,364.2z"/>
</g>
<g id="place">
	<path class="st0" d="M789.3,560.3c1.2-0.2,2.3,0.7,2.5,1.9c0,0.1,0,0.2,0,0.3v120c0,1.4-1.1,2.5-2.5,2.5h-220
		c-1.4,0-2.5-1.1-2.5-2.5v-95c0-1.4,1.1-2.6,2.5-2.8L789.3,560.3z"/>
</g>
<g id="tram">
	<path class="st0" d="M1027.4,453.6c0,0-0.8-0.8-1.8-1.8L944.9,371c-1-1-1-2.6,0-3.5l54.4-54.4c1-1,2.6-1,3.5,0L1105,415.4
		c1,1,1.8,1.8,1.8,1.8s0,1.1,0,2.5l0.1,119.1c0,1.4-1.1,2.5-2.5,2.5h-74.5c-1.4,0-2.5-1.1-2.5-2.5v-82.7
		C1027.4,454.7,1027.4,453.6,1027.4,453.6z"/>
</g>
<g id="country">
	<path class="st0" d="M1248,314.5c1.1,1.2,1.7,2.7,1.8,4.3v95.9c0,1.4-1.1,2.5-2.5,2.5h-120c-1.4,0-2.5-1.1-2.5-2.5v-12.9
		c-0.1-1.6-0.7-3.1-1.8-4.3l-102.3-102.3c-1-1-1-2.6,0-3.5l100.5-100.5c1-1,2.6-1,3.5,0L1248,314.5z"/>
</g>
<g id="floods">
	<path class="st0" d="M1008.1,469.5c1.1,1.2,1.7,2.7,1.8,4.3v65c0,1.4-1.1,2.5-2.5,2.5H827.3c-1.4,0-2.5-1.1-2.5-2.5v-48.7
		c0.1-1.6,0.7-3.1,1.8-4.3l97.2-97.1c1-1,2.6-1,3.5,0L1008.1,469.5z"/>
</g>
<g id="birth">
	<path class="st0" d="M1120.5,109c1.4,0,2.5,1.1,2.5,2.5v40.3c-0.1,1.6-0.7,3.1-1.8,4.3L927.4,349.9c-1,1-2.6,1-3.5,0l-80.3-80.5
		c-1.1-1.2-1.7-2.7-1.8-4.3V111.5c0-1.4,1.1-2.5,2.5-2.5H1120.5z"/>
</g>
<g id="meanjin">
	<path class="st0" d="M730.3,389.5l97.2-97.2c1-1,2.6-1,3.5,0l75.1,75.1c1,1,1,2.6,0,3.5l-97.2,97.2c-1,1-2.6,1-3.5,0L730.3,393
		C729.3,392.1,729.3,390.5,730.3,389.5z"/>
</g>
<g id="story">
	<path class="st0" d="M814.3,109c1.4,0,2.5,1.1,2.5,2.5v153.7c-0.1,1.6-0.7,3.1-1.8,4.3L695.2,389.3c-1.2,1.1-2.7,1.7-4.3,1.8
		l-121.6-0.4c-1.4,0-2.5-1.1-2.5-2.5V111.5c0-1.4,1.1-2.5,2.5-2.5H814.3z"/>
</g>
<text transform="matrix(1 0 0 1 279.81 534.26)" class="st1 st2 st3">Life of Riley</text>
<text transform="matrix(1 0 0 1 590.1 247.1)" class="st1 st2 st4">A Brisbane Story</text>
<text transform="matrix(1 0 0 1 1162.27 469.68)" class="st1 st2 st4">ABC</text>
<text transform="matrix(1 0 0 1 1152.54 505.68)" class="st1 st2 st4">Radio</text>
<text transform="matrix(1 0 0 1 1150.22 541.68)" class="st1 st2 st4">Booth</text>
<text transform="matrix(1 0 0 1 1095.53 321.92)" class="st1 st2 st4">Cou</text>
<text transform="matrix(1 0 0 1 1143.1101 321.92)" class="st1 st2 st4">n</text>
<text transform="matrix(1 0 0 1 1158.5901 321.92)" class="st1 st2 st4">t</text>
<text transform="matrix(1 0 0 1 1168.6399 321.92)" class="st1 st2 st4">r</text>
<text transform="matrix(1 0 0 1 1179.25 321.92)" class="st1 st2 st4">y</text>
<text transform="matrix(1 0 0 1 868.42 200.01)" class="st1 st2 st4">Birth of a City</text>
<text transform="matrix(1 0 0 1 774 361.31)" class="st1 st2 st5">Meanjin</text>
<text transform="matrix(1 0 0 1 803.98 390.11)" class="st1 st2 st5">t</text>
<text transform="matrix(1 0 0 1 811.79 390.11)" class="st1 st2 st5">o</text>
<text transform="matrix(1 0 0 1 771.73 418.91)" class="st1 st2 st5">Brisbane</text>
<text transform="matrix(1 0 0 1 1034.1399 437.16)" class="st1 st2 st4">T</text>
<text transform="matrix(1 0 0 1 1046.8999 437.16)" class="st1 st2 st4">r</text>
<text transform="matrix(1 0 0 1 1056.74 437.16)" class="st1 st2 st4">am</text>
<text transform="matrix(1 0 0 1 1034.1399 473.16)" class="st1 st2 st4">D</text>
<text transform="matrix(1 0 0 1 1052.6001 473.16)" class="st1 st2 st4">a</text>
<text transform="matrix(1 0 0 1 1066.4099 473.16)" class="st1 st2 st4">y</text>
<text transform="matrix(1 0 0 1 1079.71 473.16)" class="st1 st2 st4">s</text>
<text transform="matrix(1 0 0 1 867.53 475.37)" class="st1 st2 st4">Brisbane</text>
<text transform="matrix(1 0 0 1 846.44 511.37)" class="st1 st2 st4">Ri</text>
<text transform="matrix(1 0 0 1 869.61 511.37)" class="st1 st2 st4">v</text>
<text transform="matrix(1 0 0 1 882.87 511.37)" class="st1 st2 st4">er Floods</text>
<text transform="matrix(1 0 0 1 1079.7095 640.3402)" class="st1 st2 st5">Scents of the Shitty</text>
<text transform="matrix(1 0 0 1 863.63 609.94)" class="st1 st2 st4">A Day in the</text>
<text transform="matrix(1 0 0 1 843.31 645.94)" class="st1 st2 st4">Life of Brisbane</text>
<text transform="matrix(1 0 0 1 646.92 636.87)" class="st1 st2 st4">Place</text>
</svg>
