<?xml version="1.0" encoding="utf-8"?>
<svg version="1.1" id="Layer_1" xmlns="http://www.w3.org/2000/svg" xmlns:xlink="http://www.w3.org/1999/xlink" viewBox="0 0 1920 1080" enable-background="new 0 0 1920 1080" xml:space="preserve">


<g id="bris_dna">
	<polygon id="polybris_dna" fill="#252064" points="766.5,495.5 637,495.5 631,507.5 599.5,513 549.5,513 527,536.5 529.5,578 519.5,612.5 504,615.5 
		504,701.5 536.5,705.5 540,717.5 560,733.5 715,692.5 719.5,682 736,682 750,682.5 756,682.5 764,681.5 766.125,680.875 
		768.625,682.375 	"/>
</g>
<g id="place">
	<polygon id="polyplace" fill="#680A18" points="771.625,640.751 794.737,640.751 795.666,621 939.62,588.53 954.66,666.143 855.899,680.036 
		812.283,680.036 771.641,681.36 	"/>
</g>
<g id="day_in_life">
	<polygon id="polyday_in_life" fill="#1D552A" points="995.875,598.375 1115.271,597.333 1140.604,605.416 1146.832,667.575 995.021,668.041 	"/>
</g>
<g id="flood">
	<polygon id="polyflood" fill="#1A4790" points="977.5,556.5 990.5,585.25 1127,583.5 1135.25,547.25 1074.5,490.5 977.5,553.5 	"/>
</g>
<g id="bris_story">
	<polygon id="polybris_story" fill="#A82823" points="954.66,355.667 901.332,337.333 881,337.333 798.332,415.333 820.666,469.667 798.332,490.5 
		796.916,538.667 830.166,536 832,524.333 892,510.333 1007.666,363 969.334,338.667 	"/>
</g>
<g id="scents">
	<polygon id="polyscents" fill="#8F9537" points="1212.75,615 1308.5,624 1318.25,681.474 1247.75,679.5 1166,668.041 1183,616.5 	"/>
</g>
<g id="radio">
	<polygon id="polyradio" fill="#ED1E29" points="1215.75,610.25 1245.25,543 1282.25,547.667 1284.25,618.5 1215.75,611.584 	"/>
</g>
<g id="country">
	<polygon id="polycountry" fill="#4F101A" points="1114,408 1173.384,338.154 1189.5,372.667 1275,463 1242.125,537.875 1197.5,474 1166,461.5 
		1142.5,437.604 	"/>
</g>
<g id="birth">
	<polygon id="polybirth" fill="#5BBA47" points="1033,337.333 1024,365 1003,405 982.5,411 981.084,439.417 1036.5,447.333 1075.584,468.75 
		1107.334,415.583 1112.055,405.737 1169.5,337.333 	"/>
</g>
<g id="tram">
	<polygon id="polytram" fill="#703293" points="1077.336,472.54 1110,417 1154.832,466 1191,482.333 1231.832,541.834 1199.5,613.167 
		1142.375,603.625 1156.832,548.334 1111.375,504.875 	"/>
</g>
<g id="meanjin">
	<g>
		<polygon id="polymeanjin" fill="#BD912D" points="979.666,441.333 947,481 936.332,473 899.332,510.667 899.332,520.333 972.334,545 1029,504.333 
			1077.053,473 1035,450 		"/>
	</g>
</g>
</svg>